<?xml version="1.0" encoding="UTF-8" standalone="no"?>
<!DOCTYPE svg PUBLIC "-//W3C//DTD SVG 1.0//EN" "http://www.w3.org/TR/2001/PR-SVG-20010719/DTD/svg10.dtd">
<svg width="52cm" height="18cm" viewBox="94 34 1025 354" xmlns="http://www.w3.org/2000/svg" xmlns:xlink="http://www.w3.org/1999/xlink">
  <g>
    <path style="fill: #c9c9b6" d="M 111.103 275.64 L 124.834,263 L 249.769,263 L 236.016,275.64 L 111.103,275.64z"/>
    <path style="fill: none; fill-opacity:0; stroke-width: 0.02; stroke: #494936" d="M 111.749 275.062 L 124.322,263.467 L 249.28,263.467 L 236.016,275.64 L 111.749,275.64 L 111.749,275.062"/>
    <path style="fill: #b7b79d" d="M 111.103 275.64 L 237.018,275.64 L 237.018,374.115 L 111.103,374.115 L 111.103,275.64z"/>
    <path style="fill: none; fill-opacity:0; stroke-width: 0.02; stroke: #494936" d="M 111.749 275.64 L 236.973,275.64 L 236.973,374.071 L 111.749,374.071 L 111.749,275.64"/>
    <path style="fill: #7a7a5a" d="M 236.016 373.158 L 249.769,359.494 L 249.769,263 L 236.016,275.64 L 236.016,373.158z"/>
    <path style="fill: none; fill-opacity:0; stroke-width: 0.02; stroke: #494936" d="M 236.016 373.158 L 249.769,359.494 L 249.769,263.467 L 249.28,263.467 L 236.016,275.64 L 236.016,373.158 L 236.016,373.158"/>
  </g>
  <g>
    <path style="fill: #c9c9b6" d="M 387.544 269.451 L 402.155,256 L 535.098,256 L 520.464,269.451 L 387.544,269.451z"/>
    <path style="fill: none; fill-opacity:0; stroke-width: 0.02; stroke: #494936" d="M 388.23 268.835 L 401.61,256.497 L 534.577,256.497 L 520.464,269.451 L 388.23,269.451 L 388.23,268.835"/>
    <path style="fill: #b7b79d" d="M 387.544 269.451 L 521.529,269.451 L 521.529,374.238 L 387.544,374.238 L 387.544,269.451z"/>
    <path style="fill: none; fill-opacity:0; stroke-width: 0.02; stroke: #494936" d="M 388.23 269.451 L 521.482,269.451 L 521.482,374.191 L 388.23,374.191 L 388.23,269.451"/>
    <path style="fill: #7a7a5a" d="M 520.464 373.22 L 535.098,358.68 L 535.098,256 L 520.464,269.451 L 520.464,373.22z"/>
    <path style="fill: none; fill-opacity:0; stroke-width: 0.02; stroke: #494936" d="M 520.464 373.22 L 535.098,358.68 L 535.098,256.497 L 534.577,256.497 L 520.464,269.451 L 520.464,373.22 L 520.464,373.22"/>
  </g>
  <g>
    <path style="fill: #c9c9b6" d="M 684.424 262.019 L 699.653,248 L 838.218,248 L 822.965,262.019 L 684.424,262.019z"/>
    <path style="fill: none; fill-opacity:0; stroke-width: 0.02; stroke: #494936" d="M 685.14 261.378 L 699.085,248.518 L 837.675,248.518 L 822.965,262.019 L 685.14,262.019 L 685.14,261.378"/>
    <path style="fill: #b7b79d" d="M 684.424 262.019 L 824.075,262.019 L 824.075,371.238 L 684.424,371.238 L 684.424,262.019z"/>
    <path style="fill: none; fill-opacity:0; stroke-width: 0.02; stroke: #494936" d="M 685.14 262.019 L 824.026,262.019 L 824.026,371.189 L 685.14,371.189 L 685.14,262.019"/>
    <path style="fill: #7a7a5a" d="M 822.965 370.177 L 838.218,355.022 L 838.218,248 L 822.965,262.019 L 822.965,370.177z"/>
    <path style="fill: none; fill-opacity:0; stroke-width: 0.02; stroke: #494936" d="M 822.965 370.177 L 838.218,355.022 L 838.218,248.518 L 837.675,248.518 L 822.965,262.019 L 822.965,370.177 L 822.965,370.177"/>
  </g>
  <g>
    <path style="fill: #c9c9b6" d="M 965.232 262.033 L 980.476,248 L 1119.18,248 L 1103.91,262.033 L 965.232,262.033z"/>
    <path style="fill: none; fill-opacity:0; stroke-width: 0.02; stroke: #494936" d="M 965.948 261.391 L 979.907,248.519 L 1118.64,248.519 L 1103.91,262.033 L 965.948,262.033 L 965.948,261.391"/>
    <path style="fill: #b7b79d" d="M 965.232 262.033 L 1105.02,262.033 L 1105.02,371.361 L 965.232,371.361 L 965.232,262.033z"/>
    <path style="fill: none; fill-opacity:0; stroke-width: 0.02; stroke: #494936" d="M 965.948 262.033 L 1104.97,262.033 L 1104.97,371.311 L 965.948,371.311 L 965.948,262.033"/>
    <path style="fill: #7a7a5a" d="M 1103.91 370.298 L 1119.18,355.128 L 1119.18,248 L 1103.91,262.033 L 1103.91,370.298z"/>
    <path style="fill: none; fill-opacity:0; stroke-width: 0.02; stroke: #494936" d="M 1103.91 370.298 L 1119.18,355.128 L 1119.18,248.519 L 1118.64,248.519 L 1103.91,262.033 L 1103.91,370.298 L 1103.91,370.298"/>
  </g>
  <g>
    <path style="fill: #0096d4" d="M 527.913 51.786 L 527.913,192.66 L 668.33,192.66 L 668.33,51.786 L 527.913,51.786z"/>
    <path style="fill: none; fill-opacity:0; stroke-width: 0.02; stroke: #aae6ff" d="M 527.913 192.66 L 668.33,192.66 L 668.33,51.786 L 527.913,51.786"/>
    <path style="fill: #00b4ff" d="M 527.913 51.786 L 545.774,35 L 686.259,35 L 668.33,51.786 L 527.913,51.786z"/>
    <path style="fill: none; fill-opacity:0; stroke-width: 0.02; stroke: #aae6ff" d="M 527.913 51.7631 L 545.271,35.4574"/>
    <path style="fill: none; fill-opacity:0; stroke-width: 0.02; stroke: #aae6ff" d="M 685.756 35.4574 L 668.33,51.786 L 527.913,51.786"/>
    <path style="fill: #005a80" d="M 668.33 51.786 L 686.259,35 L 686.259,174.525 L 668.33,191.333 L 668.33,51.786z"/>
    <path style="fill: none; fill-opacity:0; stroke-width: 0.02; stroke: #aae6ff" d="M 668.33 51.786 L 685.756,35.4574"/>
    <path style="fill: none; fill-opacity:0; stroke-width: 0.02; stroke: #aae6ff" d="M 686.259 35.4574 L 686.259,174.525 L 668.33,191.333 L 668.33,51.786"/>
    <path style="fill: #000000" d="M 573.857 121.583 L 573.857,81.493 L 561.096,81.493 L 577.699,59.5615 L 595.583,81.493 L 582.822,81.493 L 582.822,107.335 L 582.822,107.335 L 573.857,121.583z"/>
    <path style="fill: #000000" d="M 573.857 121.583 L 573.857,81.493 L 561.096,81.493 L 577.699,59.5615 L 595.583,81.493 L 582.822,81.493 L 582.822,107.335 L 573.857,121.583z"/>
    <path style="fill: #000000" d="M 603.244 98.3018 L 642.83,98.3018 L 642.83,85.4036 L 663.23,103.47 L 642.83,120.279 L 642.83,107.335 L 617.308,107.335 L 617.308,107.335 L 603.244,98.3018z"/>
    <path style="fill: #000000" d="M 603.244 98.3018 L 642.83,98.3018 L 642.83,85.4036 L 663.23,103.47 L 642.83,120.279 L 642.83,107.335 L 617.308,107.335 L 603.244,98.3018z"/>
    <path style="fill: #000000" d="M 627.531 130.616 L 627.531,168.098 L 639.011,168.098 L 622.408,188.749 L 604.502,168.098 L 617.308,168.098 L 617.308,144.84 L 617.308,144.84 L 627.531,130.616z"/>
    <path style="fill: #000000" d="M 627.531 130.616 L 627.531,168.098 L 639.011,168.098 L 622.408,188.749 L 604.502,168.098 L 617.308,168.098 L 617.308,144.84 L 627.531,130.616z"/>
    <path style="fill: #000000" d="M 595.583 155.154 L 555.973,155.154 L 555.973,166.772 L 535.597,150.009 L 555.973,131.897 L 555.973,144.84 L 582.822,144.84 L 582.822,144.84 L 595.583,155.154z"/>
    <path style="fill: #000000" d="M 595.583 155.154 L 555.973,155.154 L 555.973,166.772 L 535.597,150.009 L 555.973,131.897 L 555.973,144.84 L 582.822,144.84 L 595.583,155.154z"/>
    <path style="fill: #000000" d="M 632.951 126.934 L 632.814,129.907 L 632.425,132.857 L 631.762,135.761 L 630.847,138.574 L 629.658,141.319 L 628.263,143.949 L 626.616,146.418 L 624.764,148.751 L 622.706,150.901 L 620.464,152.868 L 618.063,154.606 L 615.502,156.138 L 612.826,157.419 L 610.036,158.471 L 607.177,159.271 L 604.25,159.797 L 601.277,160.071 L 598.304,160.071 L 595.331,159.797 L 592.404,159.271 L 589.545,158.471 L 586.755,157.419 L 584.08,156.138 L 581.518,154.606 L 579.117,152.868 L 576.876,150.901 L 574.818,148.751 L 572.965,146.418 L 571.319,143.949 L 569.924,141.319 L 568.734,138.574 L 567.82,135.761 L 567.156,132.857 L 566.768,129.907 L 566.63,126.934 L 566.768,123.961 L 567.156,121.011 L 567.82,118.106 L 568.734,115.294 L 569.924,112.549 L 571.319,109.919 L 572.965,107.449 L 574.818,105.117 L 576.876,102.967 L 579.117,101 L 581.518,99.2623 L 584.08,97.7301 L 586.755,96.4494 L 589.545,95.3974 L 592.404,94.597 L 595.331,94.071 L 598.304,93.7966 L 601.277,93.7966 L 604.25,94.071 L 607.177,94.597 L 610.036,95.3974 L 612.826,96.4494 L 615.502,97.7301 L 618.063,99.2623 L 620.464,101 L 622.706,102.967 L 624.764,105.117 L 626.616,107.449 L 628.263,109.919 L 629.658,112.549 L 630.847,115.294 L 631.762,118.106 L 632.425,121.011 L 632.814,123.961 L 632.951,126.934 L 622.66,126.934 L 622.568,124.876 L 622.294,122.84 L 621.837,120.851 L 621.196,118.907 L 620.396,117.009 L 619.412,115.202 L 618.292,113.487 L 617.011,111.886 L 615.593,110.4 L 614.038,109.05 L 612.392,107.838 L 610.631,106.786 L 608.778,105.894 L 606.857,105.185 L 604.891,104.637 L 602.855,104.271 L 600.82,104.088 L 598.762,104.088 L 596.726,104.271 L 594.691,104.637 L 592.724,105.185 L 590.803,105.894 L 588.951,106.786 L 587.19,107.838 L 585.543,109.05 L 583.988,110.4 L 582.57,111.886 L 581.29,113.487 L 580.169,115.202 L 579.186,117.009 L 578.385,118.907 L 577.745,120.851 L 577.287,122.84 L 577.013,124.876 L 576.922,126.934 L 577.013,128.992 L 577.287,131.028 L 577.745,133.017 L 578.385,134.961 L 579.186,136.859 L 580.169,138.666 L 581.29,140.381 L 582.57,141.982 L 583.988,143.468 L 585.543,144.818 L 587.19,146.03 L 588.951,147.082 L 590.803,147.974 L 592.724,148.683 L 594.691,149.231 L 596.726,149.597 L 598.762,149.78 L 600.82,149.78 L 602.855,149.597 L 604.891,149.231 L 606.857,148.683 L 608.778,147.974 L 610.631,147.082 L 612.392,146.03 L 614.038,144.818 L 615.593,143.468 L 617.011,141.982 L 618.292,140.381 L 619.412,138.666 L 620.396,136.859 L 621.196,134.961 L 621.837,133.017 L 622.294,131.028 L 622.568,128.992 L 622.66,126.934 L 632.951,126.934z"/>
    <path style="fill: #000000" d="M 626.227 121.583 L 626.227,81.493 L 637.685,81.493 L 621.105,59.5615 L 603.244,81.493 L 617.308,81.493 L 617.308,107.335 L 617.308,107.335 L 626.227,121.583z"/>
    <path style="fill: #000000" d="M 626.227 121.583 L 626.227,81.493 L 637.685,81.493 L 621.105,59.5615 L 603.244,81.493 L 617.308,81.493 L 617.308,107.335 L 626.227,121.583z"/>
    <path style="fill: #000000" d="M 595.583 98.3018 L 555.973,98.3018 L 555.973,85.4036 L 535.597,103.47 L 555.973,120.279 L 555.973,107.335 L 581.541,107.335 L 581.541,107.335 L 595.583,98.3018z"/>
    <path style="fill: #000000" d="M 595.583 98.3018 L 555.973,98.3018 L 555.973,85.4036 L 535.597,103.47 L 555.973,120.279 L 555.973,107.335 L 581.541,107.335 L 595.583,98.3018z"/>
    <path style="fill: #000000" d="M 572.576 131.897 L 572.576,168.098 L 559.815,168.098 L 577.699,188.749 L 594.302,168.098 L 581.541,168.098 L 581.541,144.84 L 581.541,144.84 L 572.576,131.897z"/>
    <path style="fill: #000000" d="M 572.576 131.897 L 572.576,168.098 L 559.815,168.098 L 577.699,188.749 L 594.302,168.098 L 581.541,168.098 L 581.541,144.84 L 572.576,131.897z"/>
    <path style="fill: #000000" d="M 603.244 155.154 L 642.83,155.154 L 642.83,166.772 L 663.23,150.009 L 642.83,131.897 L 642.83,144.84 L 617.308,144.84 L 617.308,144.84 L 603.244,155.154z"/>
    <path style="fill: #000000" d="M 603.244 155.154 L 642.83,155.154 L 642.83,166.772 L 663.23,150.009 L 642.83,131.897 L 642.83,144.84 L 617.308,144.84 L 603.244,155.154z"/>
    <path style="fill: #ffffff" d="M 572.576 120.279 L 572.576,80.2123 L 559.815,80.2123 L 577.699,59.5615 L 594.302,80.2123 L 581.541,80.2123 L 581.541,106.054 L 581.541,106.054 L 572.576,120.279z"/>
    <path style="fill: #ffffff" d="M 572.576 120.279 L 572.576,80.2123 L 559.815,80.2123 L 577.699,59.5615 L 594.302,80.2123 L 581.541,80.2123 L 581.541,106.054 L 572.576,120.279z"/>
    <path style="fill: #ffffff" d="M 601.94 97.0211 L 641.573,97.0211 L 641.573,85.4036 L 663.23,102.19 L 641.573,118.998 L 641.573,106.054 L 615.982,106.054 L 615.982,106.054 L 601.94,97.0211z"/>
    <path style="fill: #ffffff" d="M 601.94 97.0211 L 641.573,97.0211 L 641.573,85.4036 L 663.23,102.19 L 641.573,118.998 L 641.573,106.054 L 615.982,106.054 L 601.94,97.0211z"/>
    <path style="fill: #ffffff" d="M 626.227 129.312 L 626.227,166.772 L 637.685,166.772 L 621.105,187.469 L 603.244,166.772 L 615.982,166.772 L 615.982,143.514 L 615.982,143.514 L 626.227,129.312z"/>
    <path style="fill: #ffffff" d="M 626.227 129.312 L 626.227,166.772 L 637.685,166.772 L 621.105,187.469 L 603.244,166.772 L 615.982,166.772 L 615.982,143.514 L 626.227,129.312z"/>
    <path style="fill: #ffffff" d="M 595.583 153.874 L 554.738,153.874 L 554.738,165.491 L 534.271,148.705 L 554.738,130.616 L 554.738,143.514 L 581.541,143.514 L 581.541,143.514 L 595.583,153.874z"/>
    <path style="fill: #ffffff" d="M 595.583 153.874 L 554.738,153.874 L 554.738,165.491 L 534.271,148.705 L 554.738,130.616 L 554.738,143.514 L 581.541,143.514 L 595.583,153.874z"/>
    <path style="fill: #ffffff" d="M 631.853 125.836 L 631.716,128.809 L 631.327,131.759 L 630.664,134.664 L 629.749,137.477 L 628.56,140.221 L 627.165,142.851 L 625.518,145.321 L 623.666,147.653 L 621.608,149.803 L 619.367,151.77 L 616.965,153.508 L 614.404,155.04 L 611.728,156.321 L 608.938,157.373 L 606.08,158.173 L 603.152,158.699 L 600.179,158.974 L 597.206,158.974 L 594.233,158.699 L 591.306,158.173 L 588.448,157.373 L 585.658,156.321 L 582.982,155.04 L 580.421,153.508 L 578.019,151.77 L 575.778,149.803 L 573.72,147.653 L 571.867,145.321 L 570.221,142.851 L 568.826,140.221 L 567.637,137.477 L 566.722,134.664 L 566.059,131.759 L 565.67,128.809 L 565.533,125.836 L 565.67,122.863 L 566.059,119.913 L 566.722,117.009 L 567.637,114.196 L 568.826,111.452 L 570.221,108.822 L 571.867,106.352 L 573.72,104.019 L 575.778,101.869 L 578.019,99.9026 L 580.421,98.1646 L 582.982,96.6323 L 585.658,95.3517 L 588.448,94.2997 L 591.306,93.4993 L 594.233,92.9733 L 597.206,92.6989 L 600.179,92.6989 L 603.152,92.9733 L 606.08,93.4993 L 608.938,94.2997 L 611.728,95.3517 L 614.404,96.6323 L 616.965,98.1646 L 619.367,99.9026 L 621.608,101.869 L 623.666,104.019 L 625.518,106.352 L 627.165,108.822 L 628.56,111.452 L 629.749,114.196 L 630.664,117.009 L 631.327,119.913 L 631.716,122.863 L 631.853,125.836 L 621.562,125.836 L 621.471,123.778 L 621.196,121.743 L 620.739,119.753 L 620.098,117.809 L 619.298,115.911 L 618.315,114.104 L 617.194,112.389 L 615.913,110.788 L 614.496,109.302 L 612.94,107.953 L 611.294,106.741 L 609.533,105.689 L 607.681,104.797 L 605.76,104.088 L 603.793,103.539 L 601.757,103.173 L 599.722,102.99 L 597.664,102.99 L 595.629,103.173 L 593.593,103.539 L 591.626,104.088 L 589.705,104.797 L 587.853,105.689 L 586.092,106.741 L 584.445,107.953 L 582.89,109.302 L 581.473,110.788 L 580.192,112.389 L 579.071,114.104 L 578.088,115.911 L 577.287,117.809 L 576.647,119.753 L 576.19,121.743 L 575.915,123.778 L 575.824,125.836 L 575.915,127.894 L 576.19,129.93 L 576.647,131.919 L 577.287,133.863 L 578.088,135.761 L 579.071,137.568 L 580.192,139.283 L 581.473,140.884 L 582.89,142.371 L 584.445,143.72 L 586.092,144.932 L 587.853,145.984 L 589.705,146.876 L 591.626,147.585 L 593.593,148.134 L 595.629,148.5 L 597.664,148.683 L 599.722,148.683 L 601.757,148.5 L 603.793,148.134 L 605.76,147.585 L 607.681,146.876 L 609.533,145.984 L 611.294,144.932 L 612.94,143.72 L 614.496,142.371 L 615.913,140.884 L 617.194,139.283 L 618.315,137.568 L 619.298,135.761 L 620.098,133.863 L 620.739,131.919 L 621.196,129.93 L 621.471,127.894 L 621.562,125.836 L 631.853,125.836z"/>
    <path style="fill: #ffffff" d="M 624.97 120.279 L 624.97,80.2123 L 636.45,80.2123 L 619.847,59.5615 L 601.94,80.2123 L 615.982,80.2123 L 615.982,106.054 L 615.982,106.054 L 624.97,120.279z"/>
    <path style="fill: #ffffff" d="M 624.97 120.279 L 624.97,80.2123 L 636.45,80.2123 L 619.847,59.5615 L 601.94,80.2123 L 615.982,80.2123 L 615.982,106.054 L 624.97,120.279z"/>
    <path style="fill: #ffffff" d="M 594.302 97.0211 L 554.738,97.0211 L 554.738,85.4036 L 534.271,102.19 L 554.738,118.998 L 554.738,106.054 L 581.541,106.054 L 581.541,106.054 L 594.302,97.0211z"/>
    <path style="fill: #ffffff" d="M 594.302 97.0211 L 554.738,97.0211 L 554.738,85.4036 L 534.271,102.19 L 554.738,118.998 L 554.738,106.054 L 581.541,106.054 L 594.302,97.0211z"/>
    <path style="fill: #ffffff" d="M 571.341 130.616 L 571.341,166.772 L 558.535,166.772 L 576.418,187.469 L 593.021,166.772 L 580.26,166.772 L 580.26,143.514 L 580.26,143.514 L 571.341,130.616z"/>
    <path style="fill: #ffffff" d="M 571.341 130.616 L 571.341,166.772 L 558.535,166.772 L 576.418,187.469 L 593.021,166.772 L 580.26,166.772 L 580.26,143.514 L 571.341,130.616z"/>
    <path style="fill: #ffffff" d="M 601.94 153.874 L 641.573,153.874 L 641.573,165.491 L 663.23,148.705 L 641.573,130.616 L 641.573,143.514 L 615.982,143.514 L 615.982,143.514 L 601.94,153.874z"/>
    <path style="fill: #ffffff" d="M 601.94 153.874 L 641.573,153.874 L 641.573,165.491 L 663.23,148.705 L 641.573,130.616 L 641.573,143.514 L 615.982,143.514 L 601.94,153.874z"/>
  </g>
  <path style="fill: none; fill-opacity:0; stroke-width: 2; stroke: #000000" d="M 527.888,96.4853 A 335.835,335.835 0 0 0 206.01,262.988"/>
  <path style="fill: none; fill-opacity:0; stroke-width: 2; stroke: #000000" d="M 1016.74,247.994 A 315.195,315.195 0 0 0 686.24,88.7408"/>
  <path style="fill: none; fill-opacity:0; stroke-width: 2; stroke: #000000" d="M 527.928,189.307 A 395.226,395.226 0 0 0 485.343,256.032"/>
  <path style="fill: none; fill-opacity:0; stroke-width: 2; stroke: #000000" d="M 748.752,248.005 A 218.028,218.028 0 0 0 683.121,154.6"/>
  <g>
    <rect style="fill: #ffffff" x="96" y="352" width="55" height="31" rx="10" ry="10"/>
    <rect style="fill: none; fill-opacity:0; stroke-width: 2; stroke-linejoin: round; stroke: #ffffff" x="96" y="352" width="55" height="31" rx="10" ry="10"/>
  </g>
  <text font-size="12.8" style="fill: #000000;text-anchor:middle;font-family:sans-serif;font-style:normal;font-weight:normal" x="123.5" y="371.925">
    <tspan x="123.5" y="371.925">h1</tspan>
  </text>
  <g>
    <rect style="fill: #ffffff" x="355.9" y="356.1" width="55" height="31" rx="10" ry="10"/>
    <rect style="fill: none; fill-opacity:0; stroke-width: 2; stroke-linejoin: round; stroke: #ffffff" x="355.9" y="356.1" width="55" height="31" rx="10" ry="10"/>
  </g>
  <text font-size="12.8" style="fill: #000000;text-anchor:middle;font-family:sans-serif;font-style:normal;font-weight:normal" x="383.4" y="376.025">
    <tspan x="383.4" y="376.025">h2</tspan>
  </text>
  <g>
    <rect style="fill: #ffffff" x="644.9" y="353.1" width="55" height="31" rx="10" ry="10"/>
    <rect style="fill: none; fill-opacity:0; stroke-width: 2; stroke-linejoin: round; stroke: #ffffff" x="644.9" y="353.1" width="55" height="31" rx="10" ry="10"/>
  </g>
  <g>
    <rect style="fill: #ffffff" x="934.9" y="350.1" width="55" height="31" rx="10" ry="10"/>
    <rect style="fill: none; fill-opacity:0; stroke-width: 2; stroke-linejoin: round; stroke: #ffffff" x="934.9" y="350.1" width="55" height="31" rx="10" ry="10"/>
  </g>
  <text font-size="12.8" style="fill: #000000;text-anchor:middle;font-family:sans-serif;font-style:normal;font-weight:normal" x="672.4" y="373.025">
    <tspan x="672.4" y="373.025">h3</tspan>
  </text>
  <text font-size="12.8" style="fill: #000000;text-anchor:middle;font-family:sans-serif;font-style:normal;font-weight:normal" x="962.4" y="370.025">
    <tspan x="962.4" y="370.025">h4</tspan>
  </text>
  <g>
    <rect style="fill: #ffffff" x="503.9" y="175.1" width="55" height="31" rx="10" ry="10"/>
    <rect style="fill: none; fill-opacity:0; stroke-width: 2; stroke-linejoin: round; stroke: #ffffff" x="503.9" y="175.1" width="55" height="31" rx="10" ry="10"/>
  </g>
  <text font-size="12.8" style="fill: #000000;text-anchor:middle;font-family:sans-serif;font-style:normal;font-weight:normal" x="531.4" y="195.025">
    <tspan x="531.4" y="195.025">s1</tspan>
  </text>
  <text font-size="20.5909" style="fill: #000000;text-anchor:middle;font-family:sans-serif;font-style:normal;font-weight:normal" x="1042.28" y="316.378">
    <tspan x="1042.28" y="316.378">consumer</tspan>
  </text>
  <text font-size="12.8" style="fill: #000000;text-anchor:middle;font-family:sans-serif;font-style:normal;font-weight:normal" x="761.4" y="313.617">
    <tspan x="761.4" y="313.617"></tspan>
  </text>
  <text font-size="20.5909" style="fill: #000000;text-anchor:middle;font-family:sans-serif;font-style:normal;font-weight:normal" x="461.397" y="321.834">
    <tspan x="461.397" y="321.834">zookeeper</tspan>
  </text>
  <text font-size="20.5909" style="fill: #000000;text-anchor:middle;font-family:sans-serif;font-style:normal;font-weight:normal" x="180.508" y="325.298">
    <tspan x="180.508" y="325.298">kafka</tspan>
  </text>
  <text font-size="20.5909" style="fill: #000000;text-anchor:middle;font-family:sans-serif;font-style:normal;font-weight:normal" x="761.4" y="316.317">
    <tspan x="761.4" y="316.317">fuse_kafka</tspan>
  </text>
</svg>
